<svg id="Layer_1" data-name="Layer 1" xmlns="http://www.w3.org/2000/svg" viewBox="0 0 1000 1000"><defs><style>.cls-1{fill:#38737d;}.cls-2{fill:#3b6678;}.cls-3{fill:#f58226;}.cls-4{fill:#f26924;}</style></defs><title>Transopt_Logo_Final</title><path class="cls-1" d="M311.09,699.15V712.3h14.33v15H311.09v21.43c0,4,2.37,5,5.33,5,4,0,8.41-1.78,10.89-3v16.34a37.27,37.27,0,0,1-16.58,3.79c-10,0-18.83-4.26-18.83-17.64V727.34h-7v-5.69l21-22.5Z"/><path class="cls-1" d="M352,722c1.89-6.4,7.46-10.42,15.87-10.42a27,27,0,0,1,6.16.71V731a23.79,23.79,0,0,0-8.77-1.66c-7.46,0-12.08,5.21-12.08,17.06V770H334V712.3h17.29V722Z"/><path class="cls-1" d="M409.75,766.54a24.19,24.19,0,0,1-14.1,4.62c-12.31,0-19.06-7.34-19.06-18,0-12.8,8.52-20,26.29-20a59.7,59.7,0,0,1,6.39.47v-1.18c0-4.26-3.79-5.8-8.76-5.8-6.4,0-14.69,2.72-17.88,4.62v-16c5.21-3.08,13.5-4.86,20.13-4.86,15.28,0,25.82,6.75,25.82,25V770H409.75Zm-.48-20.13a36.78,36.78,0,0,0-5.44-.48c-5.69,0-8.18,2.13-8.18,5.21s2.49,4.5,5.45,4.5a15.83,15.83,0,0,0,8.17-2.25Z"/><path class="cls-1" d="M439,717.63a61.43,61.43,0,0,1,27.72-6.76c17.65,0,26.88,6.76,26.88,23.46V770H474.3V736.1c0-5.92-3.55-8.17-8.77-8.17a27,27,0,0,0-7.22,1.18V770H439Z"/><path class="cls-1" d="M541.69,714.9v16.46A34.64,34.64,0,0,0,526.41,727c-2.48,0-3.79.71-3.79,1.78,0,4.74,23.22,5.33,23.22,23.92,0,10.54-7.82,18.24-21.8,18.24-5.21,0-13.62-.83-20.72-5.21V747.23c4,3.56,13,7.47,20,7.47,2.13,0,3.68-.6,3.68-2.25,0-6.28-23.34-6.75-23.34-24.05,0-11.49,8.65-17.53,19.78-17.53A43.12,43.12,0,0,1,541.69,714.9Z"/><path class="cls-1" d="M580,710.52c18,0,31,12.32,31,29.61,0,18.71-13.27,30.91-31.51,30.91C562.18,771,550,758,550,740.13A29.56,29.56,0,0,1,580,710.52Zm.12,42.87c7.58,0,11.72-5.21,11.72-13,0-6.39-4.26-11.84-11.61-11.84-6,0-10.89,5.33-10.89,11.73C569.29,748.89,573.91,753.39,580.07,753.39Z"/><path class="cls-1" d="M669.84,741.08c0,18.71-9.23,29.72-27.59,29.72a52.57,52.57,0,0,1-5.92-.35v21.32l-19.19,5.68v-81.6c6.28-3,17.17-5.33,25.11-5.33C662.38,710.52,669.84,723.67,669.84,741.08ZM649.59,741c0-10.07-3.79-12.91-7.7-12.91a13.62,13.62,0,0,0-5.45,1.06v23.57a17.46,17.46,0,0,0,4.62.6C645.68,753.28,649.59,749.84,649.59,741Z"/><path class="cls-1" d="M698.86,699.15V712.3h14.33v15H698.86v21.43c0,4,2.37,5,5.33,5,4,0,8.41-1.78,10.9-3v16.34a37.31,37.31,0,0,1-16.58,3.79c-10,0-18.84-4.26-18.84-17.64V727.34h-7v-5.69l21-22.5Z"/><polygon class="cls-1" points="575.58 411 581.89 417.36 576.23 423.06 499.36 500.49 428.16 428.77 362.62 494.78 428.15 560.78 499.36 632.49 712.96 417.36 641.76 345.65 576.23 279.64 575.58 280.29 575.58 411"/><polygon class="cls-2" points="510.69 345.65 576.21 411.64 576.21 279.64 510.69 345.65"/><polygon class="cls-3" points="499.36 203.53 287.04 417.36 356.95 487.78 428.16 416.06 499.36 487.77 499.36 346.95 498.07 345.65 569.28 273.94 499.36 203.53"/><polygon class="cls-4" points="499.36 487.78 569.28 417.36 499.36 346.95 499.36 487.77 499.36 487.78"/></svg>